PathFileType	4	(X/Y/Z)	/Users/niels/Desktop/University/Third Semester/Perception and Action/Exam/Gymnastics Motion Tracking/Code for Gym Tracking/Analyzed Data/Webcam_Backflip/id4_3_pure_Sports2D/id4_3_pure_Sports2D_px_person00.trc
DataRate	CameraRate	NumFrames	NumMarkers	Units	OrigDataRate	OrigDataStartFrame	OrigNumFrames
29.81132075471698	29.81132075471698	10	22	m	29.81132075471698	79	159
Frame#	Time	Hip			RHip			RKnee			RAnkle			RBigToe			RSmallToe			RHeel			LHip			LKnee			LAnkle			LBigToe			LSmallToe			LHeel			Neck			Head			Nose			RShoulder			RElbow			RWrist			LShoulder			LElbow			LWrist		
		X1	Y1	Z1	X2	Y2	Z2	X3	Y3	Z3	X4	Y4	Z4	X5	Y5	Z5	X6	Y6	Z6	X7	Y7	Z7	X8	Y8	Z8	X9	Y9	Z9	X10	Y10	Z10	X11	Y11	Z11	X12	Y12	Z12	X13	Y13	Z13	X14	Y14	Z14	X15	Y15	Z15	X16	Y16	Z16	X17	Y17	Z17	X18	Y18	Z18	X19	Y19	Z19	X20	Y20	Z20	X21	Y21	Z21	X22	Y22	Z22
79	2.65	0.9038118543966491	-0.32833589055255075	0.0	0.9033512643164523	-0.32531819066112777	0.0	0.9869362094873453	-0.40868618585926747	0.0	0.935169557383213	-0.48708209337697184	0.0	0.9509030913248839	-0.5358940873074874	0.0	0.9447864728260938	-0.5295286877929927	0.0	0.9237698446666579	-0.49408404823614066	0.0	0.8981669214561449	-0.3288404101370833	0.0	0.8961988445045975	-0.4417152884380412	0.0	0.8119736919058419	-0.5016221297551158	0.0	0.7816432031850439	-0.5495314571259805	0.0	0.782780237984187	-0.5433141032377334	0.0	0.7966437321226884	-0.5029088410151558	0.0	0.9532735543251695	-0.19713294572183515	0.0	0.9905444470463552	-0.13593367338399176	0.0	0.9902193033654003	-0.1701117475938368	0.0	0.939195641630255	-0.19356505372937932	0.0	0.9604646340249441	-0.11948800880524953	0.0	0.9807526789729004	-0.05270193257861861	0.0	0.9713857584940767	-0.2153041737195796	0.0	1.0299965196401912	-0.23581506021250426	0.0	1.0880090462352603	-0.22338398934123427	0.0
80	2.6835443037974684	0.9025378090477163	-0.3368475996413755	0.0	0.901552211994218	-0.333871179752471	0.0	0.9831585660898849	-0.42032723777181125	0.0	0.9491457050449011	-0.5101707694525917	0.0	0.9749442764760714	-0.5546758947844708	0.0	0.9673888616504319	-0.5505077202006993	0.0	0.9399953855028644	-0.5199445020829679	0.0	0.8985963583789939	-0.33739136743470166	0.0	0.8998733892960227	-0.4495260658366012	0.0	0.8098642941972107	-0.5031572159316812	0.0	0.776311641843648	-0.550176051788793	0.0	0.7777835646591122	-0.5439114633787944	0.0	0.7942637894995321	-0.5034677075021778	0.0	0.9533361456093709	-0.2060600061513694	0.0	0.9879633547360229	-0.1442176861892447	0.0	0.9891292622674919	-0.17870270266896365	0.0	0.9390119209052279	-0.20223039856953362	0.0	0.967723333981564	-0.13303348869472528	0.0	0.9912660596713893	-0.06979907319370209	0.0	0.9717984565825933	-0.2242093829926323	0.0	1.0284697069394293	-0.25117343217815014	0.0	1.087874117414998	-0.2500277090782365	0.0
81	2.7170886075949365	0.901509360536305	-0.3481405194705011	0.0	0.8998686962403689	-0.34491616167814254	0.0	0.9762803133967595	-0.4365929693757224	0.0	0.9599015389613559	-0.5354744341342952	0.0	0.9932088003402333	-0.5750740782545863	0.0	0.9848245758960594	-0.5730569435631413	0.0	0.9525073986765837	-0.5473632262678161	0.0	0.8994170715273277	-0.34822982010998726	0.0	0.9043936217648489	-0.46033436061064703	0.0	0.8132059256960669	-0.5127417322197211	0.0	0.7811621496993764	-0.559463509066405	0.0	0.7825580308840612	-0.5529793611672004	0.0	0.7975381430763406	-0.5129608258621021	0.0	0.953827974432589	-0.21708159020157924	0.0	0.9857257270708032	-0.15388386326936035	0.0	0.9882939828986473	-0.18892939876173137	0.0	0.9395855507141182	-0.2137926722460901	0.0	0.9773882695577804	-0.15219790220986498	0.0	1.00515260113607	-0.09379073633011882	0.0	0.9713471569761876	-0.2352865526688695	0.0	1.0239681183985072	-0.27033161990705734	0.0	1.0830194921049476	-0.28082987363215567	0.0
82	2.750632911392405	0.9008550501480355	-0.362451569841588	0.0	0.8984917896290863	-0.3589350035454891	0.0	0.9675235548303078	-0.45681008742729257	0.0	0.966271819127003	-0.5623690040625436	0.0	1.004108589561685	-0.5971297899330335	0.0	0.9951879602285694	-0.5971299408621386	0.0	0.9601127629793861	-0.575724228132383	0.0	0.9003737367778699	-0.3616889136617025	0.0	0.9090789391711129	-0.47448562882098416	0.0	0.8218607546291493	-0.5310381971890686	0.0	0.796481651534608	-0.5779070909516307	0.0	0.7972515712953899	-0.5710889665861195	0.0	0.8064743012887077	-0.5321010379768369	0.0	0.9548784415214225	-0.23021948294544553	0.0	0.9843135499807397	-0.16515320756357513	0.0	0.9880757705183291	-0.20075714309672918	0.0	0.9413315386011994	-0.22840920841832563	0.0	0.9894302703430139	-0.1764806467769115	0.0	1.0217871631191227	-0.12343306465126128	0.0	0.9700587450757723	-0.24853244989157028	0.0	1.0166008939131563	-0.2929463843122374	0.0	1.0735908577522522	-0.3147994187311157	0.0
83	2.784177215189873	0.900670548111709	-0.3801757582958848	0.0	0.8976645922672222	-0.37658532641549425	0.0	0.9582948239561624	-0.4804048597879612	0.0	0.9676557136785359	-0.5905671746457838	0.0	1.0070864538875055	-0.6213497896672796	0.0	0.9977247655732789	-0.6231187738232613	0.0	0.9621090294219826	-0.60490541147027	0.0	0.9011552681013499	-0.37837218792438476	0.0	0.9131846201264029	-0.49237972259508417	0.0	0.83523540207712	-0.5575120205416212	0.0	0.8206793659679762	-0.6041473001044713	0.0	0.8202049900581444	-0.5970619141467916	0.0	0.8205549581309267	-0.5604002888494966	0.0	0.9564870329600716	-0.24616269091740692	0.0	0.9840671877167808	-0.17899073305838323	0.0	0.9886523017666757	-0.21513833524697695	0.0	0.9443463105090669	-0.24660466934941383	0.0	1.002923905655426	-0.20597104498929034	0.0	1.039842535315428	-0.15826400439823032	0.0	0.9680387590912111	-0.26434859158816654	0.0	1.0068640809577898	-0.3183540171224725	0.0	1.0604210501984548	-0.35093329978115323	0.0
84	2.8177215189873417	0.9010386786797902	-0.40180177767534037	0.0	0.8976931948072256	-0.39853751724244363	0.0	0.9498136351147329	-0.5070982393275638	0.0	0.9642262794927939	-0.6200667047411899	0.0	1.0027491603887035	-0.6481981387556861	0.0	0.9930483812910486	-0.6513037321027288	0.0	0.9585897954685136	-0.6351265465830125	0.0	0.9015903004511269	-0.3990869326865633	0.0	0.9162105078780968	-0.5143933994663731	0.0	0.8520573851502823	-0.590644931421984	0.0	0.8502317168091573	-0.6356803359754829	0.0	0.8480363819185552	-0.6286039269330861	0.0	0.8384255862919113	-0.5962864760812782	0.0	0.9584684382941212	-0.2660870000698687	0.0	0.984760038725043	-0.19680312038007727	0.0	0.9898456558818028	-0.23361173405977556	0.0	0.9483669351757699	-0.26912404650282257	0.0	1.015889113599961	-0.24134653182419846	0.0	1.0571878417854785	-0.19933444325850458	0.0	0.9654319198491957	-0.283567172512886	0.0	0.9955758104356935	-0.345668588229982	0.0	1.0448425035448135	-0.3880805424194559	0.0
85	2.85126582278481	0.9020098108339973	-0.42777862584809845	0.0	0.8988050509594788	-0.42525355362082695	0.0	0.9428917154935981	-0.5368714798616542	0.0	0.9569039281932241	-0.6510763827128164	0.0	0.9928039089789582	-0.6776797562578993	0.0	0.9829850741728267	-0.6815492824174008	0.0	0.9505371247663132	-0.6667067729645674	0.0	0.901867241624843	-0.42461254865908504	0.0	0.918323564059865	-0.5407194201271052	0.0	0.8702724488746949	-0.6282894196034076	0.0	0.8804306379726451	-0.669917935544415	0.0	0.8763829956581995	-0.6632442730449126	0.0	0.8577600056700346	-0.637175877430387	0.0	0.9604532397342745	-0.2910171242674201	0.0	0.9857584252492528	-0.21990248689792666	0.0	0.9912330127449653	-0.2574501638315161	0.0	0.9528177250157271	-0.29651453802180294	0.0	1.025976997426801	-0.2831955703509853	0.0	1.0714026856036485	-0.24840291170563386	0.0	0.9624034655357085	-0.30713424890489016	0.0	0.9838778346730329	-0.3741595325832941	0.0	1.0285583121070614	-0.424899232210233	0.0
86	2.8848101265822783	0.9035729711778473	-0.45829314271129845	0.0	0.900981706669729	-0.4567482258572747	0.0	0.9379605829313338	-0.5696538946150709	0.0	0.9471468351582832	-0.6837182839320273	0.0	0.9798471058755496	-0.7091783301775638	0.0	0.9701856699456909	-0.7132786846481074	0.0	0.9395949178431274	-0.6996587226075219	0.0	0.9024613008856304	-0.455269344688604	0.0	0.9203666791553081	-0.5711549362547009	0.0	0.8874253045304723	-0.6681269246730058	0.0	0.906880861549019	-0.7048831015468376	0.0	0.9012526427664325	-0.6989750019763282	0.0	0.8757140309561825	-0.6798867317879317	0.0	0.96202296508814	-0.32125406093805353	0.0	0.9865661979098352	-0.2489812552209674	0.0	0.9924365805023277	-0.28709183066510835	0.0	0.9569338297125362	-0.3288403193030759	0.0	1.0314215857195055	-0.3311963505330034	0.0	1.0805240387359676	-0.3060290701258967	0.0	0.9591842224201059	-0.3356132337051614	0.0	0.9732197364415701	-0.4036784483313543	0.0	1.013552789925395	-0.4600412109301367	0.0
87	2.918354430379747	0.9055998648249142	-0.4929465028987227	0.0	0.9038947379753949	-0.4923731676327333	0.0	0.9351975547092914	-0.6049416806247218	0.0	0.9367284837691289	-0.7176174435420768	0.0	0.9668435937971666	-0.7415388146771703	0.0	0.9575245009195531	-0.74553012486694	0.0	0.9278230575291885	-0.7333051604029699	0.0	0.9037803476681394	-0.4905099537458276	0.0	0.9232032525129824	-0.6049702785820077	0.0	0.9013999234258429	-0.7080837910086303	0.0	0.9269144210458293	-0.7392723158795348	0.0	0.9202807938663039	-0.7343263777426657	0.0	0.8898981160681841	-0.7214376148011759	0.0	0.9629288598581288	-0.3561557527575051	0.0	0.9871070508628886	-0.2836815209983889	0.0	0.9933308291891806	-0.32194627173865864	0.0	0.9599994087626169	-0.36554783668076357	0.0	1.0314114625638258	-0.3837895986855948	0.0	1.0833350910237285	-0.37068096166727355	0.0	0.9560995162390021	-0.3688131943016791	0.0	0.9651443110130776	-0.4347739842371862	0.0	1.0019073232659157	-0.4926587994850629	0.0
88	2.951898734177215	0.9077746845154605	-0.5304130492587877	0.0	0.9070006002831511	-0.5306181437377657	0.0	0.9345863091570475	-0.6414960482576012	0.0	0.9274411773067449	-0.7516471123975769	0.0	0.9563195140334465	-0.7732378523244637	0.0	0.9473900272643049	-0.777021533578548	0.0	0.9173443447944409	-0.7662705648012501	0.0	0.9058161630972377	-0.5287331282679267	0.0	0.9270635898646561	-0.6407502532500657	0.0	0.9110644841668273	-0.746364963941828	0.0	0.9400781148234949	-0.7720721051966906	0.0	0.9330293194100245	-0.7680027826041019	0.0	0.899218831853164	-0.7596174833829082	0.0	0.9632312276791911	-0.39404858006762367	0.0	0.9876362473974902	-0.3223486060411685	0.0	0.9940715932700609	-0.3602732744794388	0.0	0.9617051961235934	-0.40521028761297684	0.0	1.0259531669363018	-0.4383966548667288	0.0	1.079268150938813	-0.4391909458118065	0.0	0.9534756066584157	-0.4054935011119416	0.0	0.9607679013319554	-0.46817743233856207	0.0	0.9950753354636409	-0.5232713119937618	0.0
